#N canvas 492 77 788 630 10;
#X text 481 22 have fun!;
#X floatatom 28 215 5 0 0 0 - - -;
#X floatatom 86 214 5 0 0 0 - - -;
#N canvas 48 336 450 300 accumulator 1;
#X obj 143 156 f;
#X obj 110 236 print;
#X text 311 63 count up;
#X text 312 84 count down;
#X obj 110 156 +;
#X text 269 12 accumulate step;
#X obj 50 7 inlet;
#X obj 142 201 outlet;
#X obj 110 117 f 0.1;
#X msg 274 40 2;
#X msg 277 63 1;
#X msg 275 85 -1;
#X msg 274 107 -2;
#X connect 0 0 4 1;
#X connect 4 0 0 0;
#X connect 4 0 7 0;
#X connect 6 0 8 0;
#X connect 8 0 4 0;
#X connect 9 0 8 1;
#X connect 10 0 8 1;
#X connect 11 0 8 1;
#X connect 12 0 8 1;
#X restore -44 257 pd accumulator;
#X floatatom 86 297 5 0 0 0 - - -;
#X floatatom 128 214 5 0 0 0 - - -;
#X text 14 89 connects a selected Arduino board to this patch;
#X obj -96 151 Arduino receive mstat;
#X obj -96 181 print mstat;
#X obj 62 150 Arduino receive mx;
#X obj 62 181 print mx;
#X obj 191 150 Arduino receive my;
#X obj 191 187 print my;
#X obj 86 235 * 0.1;
#N canvas 48 336 450 300 accumulator 1;
#X obj 143 156 f;
#X obj 110 236 print;
#X text 311 63 count up;
#X text 312 84 count down;
#X obj 110 156 +;
#X text 269 12 accumulate step;
#X obj 50 7 inlet;
#X obj 142 201 outlet;
#X obj 110 117 f 0.1;
#X msg 274 40 2;
#X msg 277 63 1;
#X msg 275 85 -1;
#X msg 274 107 -2;
#X connect 0 0 4 1;
#X connect 4 0 0 0;
#X connect 4 0 7 0;
#X connect 6 0 8 0;
#X connect 8 0 4 0;
#X connect 9 0 8 1;
#X connect 10 0 8 1;
#X connect 11 0 8 1;
#X connect 12 0 8 1;
#X restore 86 260 pd accumulator;
#X obj -58 305 moses 127;
#X obj -62 345 moses 0;
#X floatatom -106 277 5 0 127 0 - - -;
#X text 341 268 off;
#X floatatom 306 318 0 0 0 0 - - -;
#X obj 308 433 makenote 64 250;
#X obj 306 344 metro 500;
#X msg 306 291 1;
#X msg 338 291 0;
#X text 306 268 on;
#X msg 306 371 60;
#X obj 297 494 noteout 0 0 2;
#X obj 306 462 stripnote;
#X obj 413 293 bng 15 250 50 0 empty empty empty 17 7 0 10 -262144
-1 -1;
#X msg 399 361 0;
#X obj 80 377 moses 0;
#X obj -164 215 route 9 10 12;
#X obj -146 246 bng 15 250 50 0 empty empty empty 17 7 0 10 -262144
-1 -1;
#X obj -105 249 bng 15 250 50 0 empty empty empty 17 7 0 10 -262144
-1 -1;
#X obj -188 247 bng 15 250 50 0 empty empty empty 17 7 0 10 -262144
-1 -1;
#X obj -174 280 tgl 15 0 empty empty empty 17 7 0 10 -262144 -1 -1
0 1;
#X obj 84 337 moses 250;
#X obj 64 424 route 0 1;
#X obj 66 452 bng 15 250 50 0 empty empty empty 17 7 0 10 -262144 -1
-1;
#X obj 100 453 bng 15 250 50 0 empty empty empty 17 7 0 10 -262144
-1 -1;
#X msg 98 474 250;
#X obj -132 418 int;
#X msg 58 474 10000;
#X obj -173 341 route 1;
#X obj -168 377 select 1;
#X obj -71 509 noteout 0 100 2;
#X obj -80 447 makenote 100 10;
#X obj 111 542 ctlout 1 1;
#X obj -25 233 * 0.4;
#X obj 24 107 Arduino close /dev/tty.usbmodem1a21;
#X connect 1 0 48 0;
#X connect 2 0 13 0;
#X connect 3 0 17 0;
#X connect 4 0 36 0;
#X connect 7 0 31 0;
#X connect 9 0 1 0;
#X connect 11 0 2 0;
#X connect 13 0 14 0;
#X connect 14 0 4 0;
#X connect 15 0 16 0;
#X connect 16 1 47 0;
#X connect 17 0 15 0;
#X connect 19 0 21 0;
#X connect 20 0 27 0;
#X connect 20 1 27 1;
#X connect 21 0 25 0;
#X connect 22 0 19 0;
#X connect 23 0 19 0;
#X connect 25 0 20 0;
#X connect 27 0 26 0;
#X connect 27 1 26 1;
#X connect 28 0 29 0;
#X connect 31 0 34 0;
#X connect 31 1 32 0;
#X connect 31 2 33 0;
#X connect 33 0 35 0;
#X connect 34 0 43 0;
#X connect 35 0 37 0;
#X connect 36 0 30 0;
#X connect 37 0 39 0;
#X connect 37 1 38 0;
#X connect 38 0 42 0;
#X connect 39 0 40 0;
#X connect 40 0 46 2;
#X connect 42 0 46 2;
#X connect 43 1 41 0;
#X connect 46 0 45 0;
#X connect 46 1 45 1;
#X connect 48 0 3 0;
