#N canvas 430 238 710 465 10;
#X msg 49 107 close;
#X obj 33 21 tgl 15 0 empty empty empty 0 -6 0 8 -262144 -1 -1 0 1
;
#X text 152 134 port number 3 (on my macbook \, Yours might be a different
one);
#N canvas 119 58 552 226 make_my_list 1;
#X obj 18 44 sel 10 13;
#X obj 76 140 route d;
#X obj 18 21 inlet;
#X obj 76 162 outlet;
#X obj 76 96 sprintf %c%c%c%c%c%c%c%c%c%c%c%c%c%c%c%c%c%c%c%c%c%c%c%c%c%c%c%c%c%c%c%c%c%c%c%c%c%c%c%c%c%c%c%c%c%c%c
;
#X obj 76 74 zl group 62;
#X text 207 140 do You know how to make this more elegant?;
#X text 207 153 in max i would use [itoa].;
#X connect 0 1 5 0;
#X connect 0 2 5 0;
#X connect 1 0 3 0;
#X connect 2 0 0 0;
#X connect 4 0 1 0;
#X connect 5 0 4 0;
#X restore 33 156 pd make_my_list;
#X text 52 19 start polling;
#X text 481 22 have fun!;
#X msg 33 64 114 \, 32 \, 100 \, 13;
#X text 154 65 the "poll" command;
#X obj 33 42 metro 40;
#X msg 49 87 open 2;
#X obj 33 134 comport 2 115200;
#X obj 33 182 unpack f f;
#X floatatom 28 215 5 0 0 0 - - -;
#X floatatom 86 214 5 0 0 0 - - -;
#N canvas 321 320 450 300 accumulator 1;
#X obj 110 51 metro 200;
#X obj 110 26 tgl 15 0 empty empty empty 17 7 0 10 -262144 -1 -1 0
1;
#X obj 143 156 f;
#X obj 110 236 print;
#X msg 275 63 1;
#X msg 274 85 -1;
#X text 311 63 count up;
#X text 312 84 count down;
#X obj 110 156 +;
#X obj 110 117 f 1;
#X msg 274 40 2;
#X msg 274 107 -2;
#X text 269 12 accumulate step;
#X obj 50 7 inlet;
#X obj 142 201 outlet;
#X connect 0 0 9 0;
#X connect 1 0 0 0;
#X connect 2 0 8 1;
#X connect 4 0 9 1;
#X connect 5 0 9 1;
#X connect 8 0 2 0;
#X connect 8 0 3 0;
#X connect 8 0 14 0;
#X connect 9 0 8 0;
#X connect 10 0 9 1;
#X connect 11 0 9 1;
#X connect 13 0 9 0;
#X restore -44 257 pd accumulator;
#X floatatom -45 296 5 0 0 0 - - -;
#N canvas 321 320 450 300 accumulator 0;
#X obj 110 51 metro 200;
#X obj 110 26 tgl 15 0 empty empty empty 17 7 0 10 -262144 -1 -1 0
1;
#X obj 143 156 f;
#X obj 110 236 print;
#X msg 275 63 1;
#X msg 274 85 -1;
#X text 311 63 count up;
#X text 312 84 count down;
#X obj 110 156 +;
#X obj 110 117 f 1;
#X msg 274 40 2;
#X msg 274 107 -2;
#X text 269 12 accumulate step;
#X obj 50 7 inlet;
#X obj 142 201 outlet;
#X connect 0 0 9 0;
#X connect 1 0 0 0;
#X connect 2 0 8 1;
#X connect 4 0 9 1;
#X connect 5 0 9 1;
#X connect 8 0 2 0;
#X connect 8 0 3 0;
#X connect 8 0 14 0;
#X connect 9 0 8 0;
#X connect 10 0 9 1;
#X connect 11 0 9 1;
#X connect 13 0 9 0;
#X restore 87 259 pd accumulator;
#X floatatom 86 298 5 0 0 0 - - -;
#X connect 0 0 10 0;
#X connect 1 0 8 0;
#X connect 3 0 11 0;
#X connect 6 0 10 0;
#X connect 8 0 6 0;
#X connect 9 0 10 0;
#X connect 10 0 3 0;
#X connect 11 0 12 0;
#X connect 11 0 13 0;
#X connect 12 0 14 0;
#X connect 13 0 16 0;
#X connect 14 0 15 0;
#X connect 16 0 17 0;
