#N canvas 540 179 637 621 10;
#X obj -333 12 adc~;
#X obj -112 142 +~ 2;
#X obj -112 109 *~ 2;
#X obj -111 81 cos~;
#X obj -131 51 phasor~;
#X obj -268 53 delwrite~ phase1 100;
#X obj -268 95 delwrite~ phase2 100;
#X obj -267 199 r~ output;
#X obj -271 250 dac~;
#X obj -104 272 vd~ phase1;
#X obj -101 309 *~ 0.8;
#X obj 1 342 s~ output;
#X obj -55 82 +~ 0.5;
#X obj -52 114 wrap~;
#X obj -50 146 cos~;
#X obj -54 245 *~ 0.8;
#X obj -53 170 *~ 2;
#X obj -54 197 +~ 2;
#X obj -54 219 vd~ phase2;
#X obj 45 69 hsl 128 15 0 1 0 0 empty empty empty -2 -8 0 10 -262144
-1 -1 4200 1;
#X obj 73 126 hsl 128 15 0 4 0 0 empty empty empty -2 -8 0 10 -262144
-1 -1 7400 1;
#X obj 53 176 hsl 128 15 -1 1 0 0 empty empty empty -2 -8 0 10 -262144
-1 -1 3500 1;
#X floatatom 42 101 5 0 0 0 - - -;
#X floatatom 56 206 5 0 0 0 - - -;
#X floatatom 56 153 5 0 0 0 - - -;
#X connect 0 0 6 0;
#X connect 0 0 5 0;
#X connect 1 0 9 0;
#X connect 2 0 1 0;
#X connect 3 0 2 0;
#X connect 4 0 3 0;
#X connect 4 0 12 0;
#X connect 7 0 8 0;
#X connect 7 0 8 1;
#X connect 9 0 10 0;
#X connect 9 0 11 0;
#X connect 10 0 5 0;
#X connect 12 0 13 0;
#X connect 13 0 14 0;
#X connect 14 0 16 0;
#X connect 15 0 6 0;
#X connect 16 0 17 0;
#X connect 17 0 18 0;
#X connect 18 0 15 0;
#X connect 18 0 11 0;
#X connect 19 0 4 0;
#X connect 19 0 22 0;
#X connect 20 0 2 1;
#X connect 20 0 1 1;
#X connect 20 0 16 1;
#X connect 20 0 17 1;
#X connect 20 0 24 0;
#X connect 21 0 15 1;
#X connect 21 0 10 1;
#X connect 21 0 23 0;
