#N canvas 791 135 729 343 10;
#X text 80 151 also outputs the send value for eas of use;
#X text 15 20 connects a selected Arduino board to this patch;
#X floatatom 20 274 5 0 0 0 - - -;
#X text 61 274 sends a number to Arduino with tag testx;
#X obj 20 306 Arduino send testx;
#X obj 343 81 Arduino receive testy;
#X text 420 111 listens for data from Arduino tagged with testy;
#X obj 18 117 Arduino send led;
#X obj 18 198 Arduino receive button;
#X text 109 230 listens for data from Arduino tagged with button;
#X floatatom 346 277 5 0 0 0 - - -;
#X obj 346 309 Arduino send abcdef;
#X text 387 277 sends a number to Arduino with tag abcdef;
#X obj 344 167 Arduino receive tick;
#X text 416 199 listens for data from Arduino tagged with tick;
#X obj 343 111 print testy;
#X obj 344 198 print tick;
#X obj 18 228 print buttton;
#X obj 18 152 print led;
#X obj 18 86 tgl 15 0 empty empty empty 17 7 0 10 -262144 -1 -1 0 1
;
#X text 46 84 sends a 0 or 1 to Arduino with tag led;
#X obj 16 42 Arduino open /dev/ttyACM0;
#X connect 2 0 4 0;
#X connect 5 0 15 0;
#X connect 7 0 18 0;
#X connect 8 0 17 0;
#X connect 10 0 11 0;
#X connect 13 0 16 0;
#X connect 19 0 7 0;
