#N canvas 396 109 717 580 10;
#X obj 47 37 r trigger;
#X obj 169 38 r midinote;
#X obj 50 70 bng 15 250 50 0 empty empty empty 17 7 0 10 -262144 -1
-1;
#X floatatom 170 68 5 0 0 0 - - -;
#X obj 174 102 mtof;
#X obj 172 139 osc~ 220;
#X obj 49 156 *~;
#X obj 47 193 dac~;
#X obj 51 129 vline~;
#X msg 49 102 1 10 0 1000 10;
#X obj 258 138 adc~;
#X obj 382 278 unpack;
#X floatatom 382 328 0 0 0 0 - - -;
#X floatatom 396 305 0 0 0 0 - - -;
#X obj 382 238 route 1 2 3 4;
#X obj 465 278 unpack;
#X floatatom 465 328 0 0 0 0 - - -;
#X floatatom 479 305 0 0 0 0 - - -;
#X obj 549 278 unpack;
#X floatatom 549 328 0 0 0 0 - - -;
#X floatatom 563 305 0 0 0 0 - - -;
#X obj 240 278 unpack;
#X floatatom 240 328 0 0 0 0 - - -;
#X floatatom 254 305 0 0 0 0 - - -;
#X floatatom 317 328 0 0 0 0 - - -;
#X obj 132 328 print attack;
#X obj 41 328 print pitch;
#X text 389 352 individual sinusoidal components;
#X text 317 350 amplitude;
#X text 327 365 (dB);
#X text 240 350 raw pitch;
#X text 227 374 and amplitude;
#X text 215 391 (up to 3 outputs);
#X text 138 348 bang on;
#X text 138 370 attack;
#X text 36 348 cooked pitch;
#X text 53 365 output;
#X text 520 241 comment;
#X obj 248 184 fiddle~ 1024 1 20 3;
#X obj 288 447 pack f f f f f f f f f f f;
#X obj 280 497 s fiddleOut;
#X text 129 385 we can't put bangs into the pack;
#X connect 0 0 2 0;
#X connect 1 0 3 0;
#X connect 2 0 9 0;
#X connect 3 0 4 0;
#X connect 4 0 5 0;
#X connect 5 0 6 1;
#X connect 6 0 7 0;
#X connect 6 0 7 1;
#X connect 8 0 6 0;
#X connect 9 0 8 0;
#X connect 10 0 38 0;
#X connect 10 1 38 0;
#X connect 11 0 12 0;
#X connect 11 1 13 0;
#X connect 12 0 39 5;
#X connect 13 0 39 6;
#X connect 14 0 11 0;
#X connect 14 1 15 0;
#X connect 14 2 18 0;
#X connect 15 0 16 0;
#X connect 15 1 17 0;
#X connect 16 0 39 7;
#X connect 17 0 39 8;
#X connect 18 0 19 0;
#X connect 18 1 20 0;
#X connect 19 0 39 9;
#X connect 20 0 39 10;
#X connect 21 0 22 0;
#X connect 21 1 23 0;
#X connect 22 0 39 2;
#X connect 23 0 39 3;
#X connect 24 0 39 4;
#X connect 38 0 39 0;
#X connect 38 2 21 0;
#X connect 38 3 24 0;
#X connect 38 4 14 0;
#X connect 39 0 40 0;
